<svg xmlns="http://www.w3.org/2000/svg" xmlns:xlink="http://www.w3.org/1999/xlink" width="83.506" height="32.687" viewBox="0 0 83.506 32.687"><defs><style>.a{fill:none;}.b{clip-path:url(#a);}.c{fill:#fff;}.d{clip-path:url(#b);}</style><clipPath id="a"><path class="a" d="M0,0H28.01V32.274H0Z" transform="translate(0.126 0.205)"/></clipPath><clipPath id="b"><path class="a" d="M0,0H26.72V32.687H0Z" transform="translate(0.282 0.205)"/></clipPath></defs><g transform="translate(-0.423 -0.465)"><g transform="translate(31.14 0.26)"><path class="a" d="M0,0H28.01V32.274H0Z" transform="translate(0.126 0.205)"/><g class="b"><path class="c" d="M25.993,6.556V26.04c0,3.759-.367,4.814,2.017,5.455v.78H18.475v-.78c1.238-.458,1.1-1.7,1.1-5.455V17.283H8.481V26.04c0,3.759-.183,5,1.1,5.455v.78H0v-.78c2.429-.641,2.063-1.7,2.063-5.455V6.556C2.063,3.026,2.2,1.192,0,.78V0H9.581V.78c-1.283.412-1.1,2.246-1.1,5.776v9.811H19.575V6.556c0-3.53.184-5.364-1.1-5.776V0H28.01V.78c-2.155.412-2.017,2.246-2.017,5.776" transform="translate(0.126 0.205)"/></g></g><path class="c" d="M22.647,31.494v.78H15.4c-4.86,0-5.96-1.329-10.773-8.3C1.971,20.217,0,17.6,0,17.6L6.326,9.948S14.211.962,6.051.78V0H21.18V.78C18.108.78,14.9.871,5,13.57,15.724,27.919,16.183,28.515,16.183,28.515a7.482,7.482,0,0,0,6.464,2.98" transform="translate(61.282 0.465)"/><path class="c" d="M7.656,3.327C7.656,3.3,7.571,1,7.543.239a.25.25,0,0,0-.5,0C7,.987,6.876,3.3,6.876,3.331,6.864,4.168,6.587,14.093,0,14.093v.78H13.891v-.78c-6.069,0-6.232-9.954-6.235-10.766" transform="translate(0.423 17.866)"/><g transform="translate(1.837 0.26)"><path class="a" d="M0,0H26.72V32.687H0Z" transform="translate(0.282 0.205)"/><g class="d"><path class="c" d="M26.59,14.777a.212.212,0,0,0-.278.114l-1.562,3.04c-1.355,2.637-2.773,3.749-4.336.714v0L11.552,0H0V.78A5.614,5.614,0,0,1,5.18,3.943L18.8,32.687h.78l.732-1.825,6.4-15.813a.212.212,0,0,0-.116-.273" transform="translate(0.282 0.205)"/></g></g></g></svg>