<svg xmlns="http://www.w3.org/2000/svg" width="40" height="40" viewBox="0 0 40 40"><defs><style>.a{fill:#fff;}</style></defs><path class="a" d="M20,40A20.005,20.005,0,0,1,12.215,1.572a20.005,20.005,0,0,1,15.57,36.856A19.875,19.875,0,0,1,20,40ZM15,17.75v3.2h2.706V29h3.3V20.949h2.567L24,17.75H21.011V15.535a1.809,1.809,0,0,1,.282-1.125,1.64,1.64,0,0,1,1.3-.421h1.688V11.14A17.528,17.528,0,0,0,21.82,11a4.093,4.093,0,0,0-2.989,1.108,4.187,4.187,0,0,0-1.125,3.111V17.75Z" transform="translate(0 0)"/></svg>