<svg xmlns="http://www.w3.org/2000/svg" width="40" height="40" viewBox="0 0 40 40"><defs><style>.a{fill:#fff;}</style></defs><path class="a" d="M20,40A20.005,20.005,0,0,1,12.215,1.572a20.005,20.005,0,0,1,15.57,36.856A19.875,19.875,0,0,1,20,40ZM10,27.967h0A12.672,12.672,0,0,0,16.966,30a12.544,12.544,0,0,0,7.053-2.033,12.414,12.414,0,0,0,4.37-4.89A12.884,12.884,0,0,0,29.9,17.062a2.6,2.6,0,0,0-.043-.562,10.014,10.014,0,0,0,2.293-2.38,9.781,9.781,0,0,1-2.6.735,4.523,4.523,0,0,0,1.99-2.509,9.27,9.27,0,0,1-2.9,1.082,5.151,5.151,0,0,0-1.492-1.039,4.362,4.362,0,0,0-1.84-.39,4.418,4.418,0,0,0-2.25.606,4.474,4.474,0,0,0-1.644,1.666,4.535,4.535,0,0,0-.606,2.272,6.336,6.336,0,0,0,.086,1.039,12.706,12.706,0,0,1-9.346-4.759,4.407,4.407,0,0,0-.086,4.457,5.059,5.059,0,0,0,1.471,1.644,4.3,4.3,0,0,1-2.033-.606V18.4a4.374,4.374,0,0,0,1.039,2.856,4.6,4.6,0,0,0,2.6,1.6,5.807,5.807,0,0,1-1.211.13c-.259,0-.535-.015-.822-.043a4.537,4.537,0,0,0,1.579,2.228,4.248,4.248,0,0,0,2.661.887,9.044,9.044,0,0,1-5.668,1.948C10.68,28.01,10.317,28,10,27.967Z" transform="translate(0 0)"/></svg>