<svg xmlns="http://www.w3.org/2000/svg" width="40" height="40" viewBox="0 0 40 40"><defs><style>.a{fill:#fff;}</style></defs><path class="a" d="M20,40A20.005,20.005,0,0,1,12.215,1.572a20.005,20.005,0,0,1,15.57,36.856A19.875,19.875,0,0,1,20,40Zm0-29c-1.731,0-2.995.02-3.757.06a7.672,7.672,0,0,0-1.989.341A4.706,4.706,0,0,0,11.4,14.254a7.672,7.672,0,0,0-.341,1.989C11.02,17.005,11,18.269,11,20s.02,2.995.06,3.757a7.669,7.669,0,0,0,.341,1.989,4.714,4.714,0,0,0,1.105,1.748,4.305,4.305,0,0,0,1.748,1.065,6.6,6.6,0,0,0,1.989.382c.745.04,2.009.06,3.757.06s3.011-.02,3.757-.06a7.635,7.635,0,0,0,1.989-.341A4.706,4.706,0,0,0,28.6,25.745a7.635,7.635,0,0,0,.341-1.989c.04-.745.06-2.009.06-3.757s-.014-2.993-.041-3.737a8.162,8.162,0,0,0-.361-2.009A4.706,4.706,0,0,0,25.745,11.4a7.669,7.669,0,0,0-1.989-.341C22.994,11.02,21.73,11,20,11Zm.643,16.393H19.357c-1.055,0-1.893-.013-2.491-.04a8.511,8.511,0,0,1-2.17-.322A3.062,3.062,0,0,1,12.968,25.3a8.56,8.56,0,0,1-.321-2.17c-.026-.6-.04-1.435-.04-2.491V19.357c0-1.055.013-1.893.04-2.491a8.162,8.162,0,0,1,.321-2.17A2.926,2.926,0,0,1,14.7,12.968a8.571,8.571,0,0,1,2.17-.321c.6-.026,1.436-.04,2.491-.04h1.285c1.056,0,1.894.013,2.491.04a8.152,8.152,0,0,1,2.17.321A2.918,2.918,0,0,1,27.031,14.7a8.106,8.106,0,0,1,.322,2.17c.026.57.04,1.408.04,2.491v1.285c0,1.056-.013,1.894-.04,2.491a8.5,8.5,0,0,1-.322,2.17A3.052,3.052,0,0,1,25.3,27.031a8.1,8.1,0,0,1-2.17.322C22.564,27.379,21.726,27.392,20.642,27.392ZM20,15.379a4.523,4.523,0,0,0-2.31.623A4.653,4.653,0,0,0,16,17.689a4.6,4.6,0,0,0,0,4.621A4.647,4.647,0,0,0,17.689,24a4.6,4.6,0,0,0,4.621,0A4.642,4.642,0,0,0,24,22.31a4.6,4.6,0,0,0,0-4.621A4.647,4.647,0,0,0,22.31,16,4.523,4.523,0,0,0,20,15.379Zm4.821-1.286a1.085,1.085,0,0,0,0,2.17.982.982,0,0,0,.743-.321,1.25,1.25,0,0,0,.341-.763,1.1,1.1,0,0,0-1.084-1.085ZM20,23.013a3.017,3.017,0,1,1,2.129-.884A2.915,2.915,0,0,1,20,23.013Z" transform="translate(0 0)"/></svg>